<?xml version="1.0" encoding="UTF-8"?>
<!DOCTYPE svg PUBLIC "-//W3C//DTD SVG 1.1//EN" "http://www.w3.org/Graphics/SVG/1.1/DTD/svg11.dtd">
<!-- Creator: CorelDRAW 2020 (64-Bit) -->
<svg xmlns="http://www.w3.org/2000/svg" xml:space="preserve" width="42.2857mm" height="9.1878mm" version="1.1" style="shape-rendering:geometricPrecision; text-rendering:geometricPrecision; image-rendering:optimizeQuality; fill-rule:evenodd; clip-rule:evenodd"
viewBox="0 0 2018.07 438.48"
 xmlns:xlink="http://www.w3.org/1999/xlink"
 xmlns:xodm="http://www.corel.com/coreldraw/odm/2003">
 <defs>
  <style type="text/css">
   <![CDATA[
    .str0 {stroke:#3C096C;stroke-width:9.54;stroke-miterlimit:22.9256}
    .fil1 {fill:#3C096C}
    .fil0 {fill:#3C096C;fill-rule:nonzero}
   ]]>
  </style>
 </defs>
 <g id="Layer_x0020_1">
  <metadata id="CorelCorpID_0Corel-Layer"/>
  <path class="fil0 str0" d="M156.3 433.31c-21.01,0 -40.68,-3.98 -58.99,-11.92 -18.32,-7.95 -34.35,-18.79 -48.09,-32.53 -13.74,-13.74 -24.58,-29.77 -32.52,-48.08 -7.95,-18.32 -11.92,-37.98 -11.92,-58.99 0,-21.01 3.98,-40.68 11.92,-59 7.95,-18.32 18.79,-34.35 32.52,-48.08 13.74,-13.74 29.77,-24.58 48.09,-32.53 18.32,-7.95 37.98,-11.92 58.99,-11.92 13.74,0 27.01,1.82 39.8,5.45 12.79,3.64 24.78,8.69 35.96,15.15 11.18,6.47 21.35,14.28 30.51,23.44 9.16,9.16 17.1,19.26 23.84,30.31l-20.2 11.72c-11.05,-19.12 -26.13,-34.61 -45.26,-46.46 -19.13,-11.85 -40.68,-17.78 -64.65,-17.78 -18.05,0 -34.82,3.44 -50.31,10.3 -15.49,6.87 -28.96,16.16 -40.41,27.88 -11.44,11.72 -20.47,25.46 -27.07,41.22 -6.6,15.76 -9.9,32.52 -9.9,50.31 0,17.78 3.3,34.55 9.9,50.31 6.6,15.76 15.63,29.49 27.07,41.21 11.45,11.72 24.92,20.94 40.41,27.68 15.49,6.73 32.26,10.1 50.31,10.1 25.86,0 48.62,-6.26 68.29,-18.79 19.66,-12.53 34.75,-28.89 45.26,-49.09l20.61 10.5c-6.47,11.85 -14.28,22.7 -23.44,32.53 -9.16,9.83 -19.46,18.25 -30.91,25.26 -11.45,7 -23.91,12.39 -37.38,16.16 -13.47,3.78 -27.61,5.66 -42.43,5.66zm255.78 0c-13.47,0 -25.12,-1.75 -34.95,-5.25 -9.83,-3.5 -17.98,-8.15 -24.44,-13.94 -6.47,-5.79 -11.25,-12.53 -14.35,-20.2 -3.1,-7.68 -4.65,-15.69 -4.65,-24.04 0,-11.32 2.36,-21.21 7.07,-29.7 4.72,-8.49 11.38,-15.69 20,-21.62 8.62,-5.93 19.06,-10.37 31.32,-13.33 12.26,-2.96 26.06,-4.44 41.42,-4.44l73.94 0 0 -13.33c0,-18.59 -6.13,-33.4 -18.38,-44.45 -12.26,-11.05 -29.83,-16.57 -52.73,-16.57 -18.59,0 -33.81,3.24 -45.66,9.7 -11.85,6.47 -22.22,16.03 -31.11,28.69l-18.59 -14.15c11.32,-13.74 24.58,-24.51 39.8,-32.32 15.22,-7.81 33.74,-11.72 55.56,-11.72 15.35,0 28.89,2.02 40.61,6.06 11.72,4.04 21.48,9.63 29.29,16.77 7.81,7.14 13.67,15.56 17.58,25.26 3.91,9.7 5.86,20.2 5.86,31.52l0 143.04 -22.63 0 0 -38.79c-10.5,13.74 -24.17,24.31 -41.01,31.72 -16.84,7.41 -34.82,11.12 -53.94,11.12zm2.42 -19.8c8.62,0 17.37,-1.01 26.26,-3.03 8.89,-2.02 17.44,-5.19 25.66,-9.5 8.22,-4.31 15.83,-9.76 22.83,-16.36 7.01,-6.6 13.07,-14.48 18.18,-23.64l0 -41.21 -73.54 0c-25.32,0 -44.38,4.11 -57.18,12.33 -12.79,8.21 -19.19,20.4 -19.19,36.57 0,6.19 1.07,11.99 3.23,17.38 2.16,5.39 5.59,10.1 10.3,14.14 4.72,4.04 10.64,7.27 17.78,9.7 7.14,2.42 15.69,3.64 25.66,3.64zm282.85 20.2c-16.7,0 -31.99,-2.83 -45.86,-8.49 -13.87,-5.66 -25.79,-13.53 -35.76,-23.64 -9.96,-10.1 -17.71,-22.09 -23.23,-35.96 -5.52,-13.87 -8.28,-29.03 -8.28,-45.46 0,-16.16 2.9,-31.11 8.69,-44.85 5.79,-13.74 13.74,-25.73 23.84,-35.96 10.1,-10.24 21.95,-18.25 35.56,-24.04 13.6,-5.79 28.35,-8.69 44.25,-8.69 8.35,0 16.9,1.15 25.66,3.44 8.76,2.29 17.1,5.59 25.05,9.9 7.95,4.31 15.22,9.7 21.82,16.16 6.6,6.47 12.19,13.74 16.77,21.82l0 -147.08 22.23 0 0 318.41 -22.23 0 0 -46.47c-4.58,8.08 -10.17,15.29 -16.77,21.62 -6.6,6.33 -13.81,11.65 -21.62,15.96 -7.81,4.31 -16.03,7.61 -24.65,9.9 -8.62,2.29 -17.1,3.43 -25.46,3.43zm0 -21.82c12.93,0 24.92,-2.36 35.96,-7.07 11.05,-4.72 20.68,-11.25 28.89,-19.6 8.22,-8.35 14.61,-18.12 19.19,-29.29 4.58,-11.18 6.87,-23.1 6.87,-35.76 0,-12.66 -2.29,-24.58 -6.87,-35.76 -4.58,-11.18 -10.98,-20.95 -19.19,-29.29 -8.21,-8.35 -17.84,-14.95 -28.89,-19.8 -11.04,-4.85 -23.03,-7.27 -35.96,-7.27 -12.66,0 -24.44,2.36 -35.35,7.07 -10.91,4.71 -20.34,11.18 -28.29,19.4 -7.95,8.21 -14.21,17.98 -18.79,29.29 -4.58,11.32 -6.87,23.44 -6.87,36.37 0,13.47 2.29,25.79 6.87,36.97 4.58,11.18 10.84,20.81 18.79,28.89 7.95,8.08 17.38,14.41 28.29,18.99 10.91,4.58 22.69,6.87 35.35,6.87zm170.52 17.38l56.97 0 0 -92.93 66.27 0 47.28 92.93 63.85 0 -58.19 -107.89c32.73,-16.57 51.72,-50.11 51.72,-87.28 0,-56.17 -40.41,-99.81 -108.29,-99.81l-119.6 0 0 294.97zm115.16 -242.44c36.37,0 54.95,18.58 54.95,47.68 0,26.26 -17.37,49.7 -54.95,49.7l-58.19 0 0 -97.38 58.19 0zm250.52 246.88c48.09,0 78.8,-19.8 100.62,-50.51l-45.66 -26.67c-10.91,17.78 -28.29,29.09 -54.14,29.09 -32.33,0 -55.36,-17.78 -62.63,-46.06l173.35 0 0 -21.01c0,-64.65 -47.28,-111.93 -112.74,-111.93 -65.05,0 -114.35,50.51 -114.35,113.95 0,63.44 45.25,113.14 115.56,113.14zm-1.21 -179.81c29.09,0 50.11,14.95 57.38,42.02l-116.37 0c8.89,-25.46 30.71,-42.02 58.99,-42.02zm149.11 175.36l56.17 0 0 -121.22c0,-35.15 16.57,-52.53 42.83,-52.53 27.07,0 39.2,16.97 39.2,46.06l0 127.69 56.97 0 0 -122.43c0,-34.35 16.57,-51.32 41.62,-51.32 28.29,0 40.41,18.18 40.41,47.68l0 126.07 57.37 0 0 -134.15c0,-54.55 -27.88,-88.5 -83.24,-88.5 -29.9,0 -54.55,14.15 -68.29,36.77 -11.72,-23.44 -33.94,-36.77 -66.67,-36.77 -26.26,0 -47.28,11.32 -60.61,30.31l0 -25.86 -55.76 0 0 218.2zm377.4 0l56.97 0 0 -218.2 -56.97 0 0 218.2zm88.09 -168.9l40.41 0 0 91.73c0,59.4 26.67,81.22 72.33,81.22 20.2,0 37.98,-6.06 52.12,-16.57l-25.46 -43.64c-6.47,5.66 -12.53,8.08 -20.2,8.08 -14.15,0 -23.84,-8.08 -23.84,-31.12l0 -89.7 57.38 0 0 -49.29 -57.38 0 0 -79.6 -54.95 32.33 0 47.28 -40.41 0 0 49.29z"/>
  <path class="fil1" d="M1767.58 35.44c-0.96,-0.46 -21.53,-4.66 -23.31,-4.66 -0.94,0 -2.8,1.27 -2.8,3.26 0,2.96 16.52,56.11 18.65,65.28l-19.64 -24.65c-1.72,-2.15 -9.92,-14.05 -12.53,-14.05 -3.44,0 -4.49,4.69 -6.99,10.27l-5.14 12.11c-3.3,0 -6.35,-0.91 -9.32,-1.4l-23.19 -4.32c-2.39,-0.42 -8.06,-2.07 -8.06,2.46 0,2.24 16.3,29.59 18.65,34.04 -1.04,0.69 -1.29,1.15 -2.26,1.93l-7.13 6.4c-1.61,1.28 -2.92,2.91 -4.47,4.39 -2.04,1.97 -3.86,1.94 -3.86,5.47 0,2.53 4.1,3.24 6.19,4.06 2.64,1.05 4.84,1.69 7.62,2.64 3.78,1.28 43.98,15.95 46.33,16.15 -0.7,2.98 -13.05,25.95 -13.05,27.97 0,5.41 8.16,2.35 10.29,1.91 2.56,-0.54 4.61,-0.97 7.31,-1.55 14.04,-3.01 28.11,-5.95 42.08,-9.22l6.52 0 56.42 12.13c1.39,0 3.26,-1.73 3.26,-2.8 0,-3.18 -12.08,-24.25 -13.05,-28.44 1.81,-0.15 28.22,-9.8 30.83,-10.67l15.2 -5.32c5.17,-2.05 14.12,-3.48 14.12,-7.32 0,-2.85 -2.21,-3.43 -3.86,-5.01 -2.76,-2.65 -10.9,-10.73 -13.86,-12.71 1.97,-3.73 18.65,-32.39 18.65,-33.57 0,-5.94 -6.84,-3.25 -12.01,-2.21 -5.08,1.02 -24.65,5.01 -28.56,5.01l-7.62 -17.56c-0.21,-0.44 -2.52,-8.12 -6.97,-3.55l-29.71 37.44c4.57,-19.62 11.78,-40.86 17.45,-60.42 0.68,-2.35 1.2,-2.59 1.2,-5.33 0,-1.01 -1.88,-2.8 -2.33,-2.8 -1.53,0 -21.69,3.66 -23.78,4.66 -0.83,-1.55 -1.22,-2.78 -2.02,-4.51l-6.37 -13.68c-1.48,-3.02 -2.78,-6.03 -4.36,-9.16 -2.13,-4.21 -2.51,-8.08 -6.37,-8.08 -2.52,0 -5.95,9.03 -7.33,12.26l-10.86 23.18z"/>
 </g>
</svg>
